<svg aria-hidden="true" style="position: absolute; width: 0; height: 0; overflow: hidden;" version="1.1" xmlns="http://www.w3.org/2000/svg" xmlns:xlink="http://www.w3.org/1999/xlink">
<defs>
<symbol id="icon-menu" viewBox="0 0 32 32">
<path d="M6.4 11.733v-2.133h19.2v2.133h-19.2zM6.4 17.067h19.2v-2.133h-19.2v2.133zM6.4 22.4h19.2v-2.133h-19.2v2.133z"></path>
</symbol>
<symbol id="icon-phone" viewBox="0 0 32 32">
<path d="M27.419 20.852l-4.201-0.48c-1.009-0.116-2.002 0.232-2.713 0.943l-3.044 3.044c-4.681-2.382-8.519-6.203-10.901-10.901l3.060-3.060c0.711-0.711 1.059-1.704 0.943-2.713l-0.48-4.168c-0.198-1.671-1.604-2.928-3.292-2.928h-2.862c-1.869 0-3.424 1.555-3.308 3.424 0.877 14.126 12.174 25.407 26.284 26.284 1.869 0.116 3.424-1.439 3.424-3.308v-2.862c0.016-1.671-1.241-3.077-2.911-3.275z"></path>
</symbol>
<symbol id="icon-antenna" viewBox="0 0 32 32">
<path fill="#212121" style="fill: var(--color1, #212121)" d="M30.773 22.098l-8.443-8.505 0.937-4.616c0.225 0.090 0.485 0.144 0.758 0.146h0.007c0.008 0 0.017 0 0.026 0 1.192 0 2.159-0.967 2.159-2.159s-0.967-2.159-2.159-2.159c-1.192 0-2.159 0.967-2.159 2.159 0 0.259 0.046 0.508 0.13 0.739l-0.005-0.015-4.96 0.606-8.091-8.133c-0.096-0.098-0.229-0.159-0.376-0.16v0c-0.14 0.001-0.274 0.057-0.373 0.155l-1.512 1.504c-0.096 0.097-0.156 0.23-0.156 0.377s0.060 0.281 0.156 0.377v0l0.814 0.825c-1.143 2.062-1.816 4.522-1.816 7.139 0 4.106 1.656 7.824 4.336 10.525l-0.001-0.001c0.043 0.041 0.092 0.074 0.146 0.097-0.032 0.164-0.051 0.353-0.052 0.546v6.188h-6.4c-1.472 0.001-2.666 1.194-2.667 2.666v1.067c0 0.295 0.239 0.534 0.534 0.534h24.534c0.294 0 0.533-0.239 0.533-0.534v-1.067c-0.002-1.472-1.195-2.665-2.666-2.666h-6.4v-2.742c1.003 0.21 2.024 0.317 3.049 0.32 2.58-0.003 5.005-0.663 7.117-1.822l-0.077 0.039 0.818 0.823c0.099 0.101 0.235 0.159 0.376 0.16 0.14-0.001 0.274-0.057 0.373-0.155l1.512-1.504c0.096-0.097 0.156-0.23 0.156-0.377s-0.060-0.281-0.156-0.377v0zM23.28 6.233c0.193-0.192 0.459-0.31 0.752-0.31 0.589 0 1.067 0.478 1.067 1.066s-0.477 1.066-1.067 1.066c0 0 0 0 0 0h-0.004c-0.587-0.003-1.061-0.479-1.061-1.066 0-0.295 0.12-0.563 0.314-0.756v0h-0.002zM22.024 9.737l-0.598 2.946-1.175-1.183 1.774-1.763zM21.419 8.835l-1.92 1.909-1.486-1.493 3.406-0.416zM24.004 28.8c0.884 0 1.6 0.716 1.6 1.6v0 0.534h-23.466v-0.534c0-0.884 0.716-1.6 1.6-1.6v0h20.267zM16.538 26.666v1.067h-5.334v-1.067h5.334zM11.204 25.6v-4.053c0-1.294 1.196-2.346 2.667-2.346s2.667 1.053 2.667 2.346v4.053h-5.334zM17.604 23.904v-2.357c0-1.882-1.675-3.413-3.733-3.413-0.017 0-0.038 0-0.058 0-1.353 0-2.54 0.707-3.213 1.771l-0.009 0.016c-2.36-2.482-3.812-5.846-3.812-9.55 0-2.314 0.567-4.496 1.569-6.414l-0.036 0.077 18.602 18.709c-1.823 0.947-3.979 1.502-6.266 1.502-1.079 0-2.128-0.124-3.136-0.357l0.093 0.018zM28.893 23.22l-21.057-21.181 0.754-0.752 7.935 7.98c0.004 0 0.006 0.007 0.010 0.010l13.114 13.191-0.757 0.752z"></path>
<path fill="#2196f3" style="fill: var(--color2, #2196f3)" d="M13.876 20.267h-0.005c-0.001 0-0.002 0-0.002 0-0.884 0-1.6 0.716-1.6 1.6s0.715 1.599 1.597 1.6h0.005c0.001 0 0.001 0 0.002 0 0.884 0 1.6-0.716 1.6-1.6s-0.715-1.599-1.598-1.6v0zM14.249 22.245c-0.096 0.096-0.229 0.155-0.376 0.155-0.295 0-0.534-0.239-0.534-0.534s0.238-0.533 0.532-0.533v0c0.293 0.001 0.531 0.239 0.531 0.533 0 0.148-0.060 0.282-0.157 0.378v0h0.005z"></path>
</symbol>
<symbol id="icon-astronaut" viewBox="0 0 32 32">
<path fill="#2196f3" style="fill: var(--color2, #2196f3)" d="M31.974 4.524c-0.064-0.191-0.227-0.332-0.427-0.362h-0.003l-1.911-0.278-0.855-1.731c-0.179-0.365-0.777-0.365-0.956 0l-0.855 1.731-1.911 0.278c-0.26 0.039-0.457 0.26-0.457 0.528 0 0.15 0.062 0.285 0.161 0.382l1.383 1.348-0.326 1.903c-0.034 0.2 0.048 0.402 0.212 0.522 0.166 0.12 0.383 0.135 0.562 0.040l1.709-0.899 1.709 0.899c0.072 0.038 0.157 0.061 0.247 0.061 0.295 0 0.534-0.239 0.534-0.534 0-0.031-0.003-0.062-0.008-0.092v0.003l-0.326-1.903 1.383-1.348c0.099-0.097 0.161-0.233 0.161-0.382 0-0.059-0.009-0.115-0.027-0.168l0.001 0.004zM29.511 5.851c-0.126 0.122-0.183 0.299-0.153 0.472l0.191 1.114-1-0.526c-0.072-0.039-0.158-0.062-0.249-0.062s-0.177 0.023-0.252 0.063l0.003-0.001-1 0.526 0.191-1.114c0.005-0.027 0.008-0.059 0.008-0.091 0-0.149-0.061-0.285-0.16-0.381v0l-0.811-0.789 1.119-0.163c0.174-0.025 0.324-0.134 0.402-0.292l0.5-1.013 0.5 1.013c0.078 0.158 0.228 0.267 0.402 0.292l1.119 0.162-0.809 0.79zM26.134 20.522h-1.067v1.067h1.067v-1.067zM26.134 22.656h-1.067v1.066h1.067v-1.066zM27.2 21.589h-1.067v1.067h1.067v-1.067zM25.067 21.589h-1.067v1.067h1.067v-1.067zM22.4 26.389h-1.067v1.067h1.067v-1.067zM22.4 28.523h-1.067v1.067h1.067v-1.067zM23.467 27.456h-1.067v1.067h1.067v-1.067zM21.334 27.456h-1.067v1.067h1.067v-1.067zM16 24.256h-1.066v1.067h1.066v-1.067zM16 26.389h-1.066v1.067h1.066v-1.067zM17.067 25.322h-1.067v1.067h1.067v-1.067zM14.934 25.322h-1.067v1.067h1.067v-1.067zM5.867 6.122h-1.066v1.066h1.066v-1.066zM5.867 8.256h-1.066v1.066h1.066v-1.066zM6.933 7.189h-1.067v1.067h1.066v-1.067zM4.8 7.189h-1.067v1.067h1.067v-1.067z"></path>
<path fill="#212121" style="fill: var(--color1, #212121)" d="M24.715 14.16c-0.28-0.376-0.699-0.636-1.179-0.703l-0.009-0.001c-0.076-0.012-0.164-0.018-0.254-0.018-0.411 0-0.789 0.139-1.090 0.373l0.004-0.003-1.253 0.96-1.898 1.417-1.358-0.541c2.421-1.086 4.113-3.508 4.113-6.32 0-3.823-3.122-6.934-6.961-6.934s-6.961 3.11-6.961 6.934c0 1.386 0.415 2.674 1.12 3.759l-2.768-0.024c-0.009 0-0.016 0.005-0.023 0.005-0.057 0.003-0.11 0.014-0.159 0.033l0.004-0.001c-0.013 0.005-0.026 0.007-0.038 0.013-0.006 0.003-0.013 0.003-0.019 0.006l-3.233 1.596c0 0-0.001 0-0.001 0.001l-1.893 0.91c-0.024 0.011-0.045 0.023-0.064 0.036l0.001-0.001c-0.482 0.324-0.795 0.867-0.795 1.483 0 0.297 0.073 0.577 0.201 0.823l-0.005-0.010c0.22 0.424 0.592 0.742 1.043 0.885l0.013 0.003c0.161 0.053 0.345 0.083 0.537 0.083 0.308 0 0.598-0.078 0.851-0.216l-0.009 0.005 1.388-0.738 2.264-1.169 1.357-0.008-5.442 5.415c0 0.001-0.001 0.001-0.001 0.001l-1.339 1.333c-0.303 0.299-0.491 0.714-0.491 1.173 0 0.002 0 0.003 0 0.005v0c0.002 0.919 0.748 1.664 1.667 1.664 0.001 0 0.002 0 0.002 0v0c0.428 0 0.854-0.162 1.18-0.485l1.314-1.309 1.741-1.3 0.901 0.897-3.102 3.088c-0.303 0.299-0.491 0.715-0.491 1.174 0 0.001 0 0.003 0 0.004v0c0 0.445 0.174 0.864 0.49 1.179 0.302 0.3 0.717 0.485 1.176 0.485 0.001 0 0.002 0 0.003 0v0c0.427 0 0.855-0.162 1.18-0.485l4.488-4.472c0.007-0.006 0.016-0.009 0.022-0.016l5.166-5.658 3.471 0.494c0.025 0.004 0.050 0.006 0.075 0.006 0.064 0 0.127-0.016 0.187-0.038 0.017-0.006 0.032-0.015 0.049-0.023 0.019-0.010 0.039-0.015 0.058-0.027l3.213-2.133c0.012-0.008 0.018-0.021 0.029-0.030 0.013-0.010 0.029-0.014 0.041-0.026l1.271-1.191c0.348-0.326 0.564-0.787 0.564-1.3 0-0.4-0.132-0.769-0.355-1.066l0.003 0.005zM2.13 17.77c-0.098 0.054-0.215 0.086-0.34 0.086-0.078 0-0.153-0.013-0.224-0.036l0.005 0.001c-0.294-0.093-0.504-0.364-0.504-0.683 0-0.236 0.114-0.445 0.29-0.575l0.002-0.001 1.314-0.632 0.449 1.313-0.992 0.527zM5.627 15.942l-1.548 0.8-0.255-0.746-0.184-0.537 2.027-1.001-0.040 1.484zM20.727 9.322c0 0.918-0.219 1.785-0.599 2.56l-4.181-1.899c-0.044-0.575-0.342-1.072-0.782-1.384l-0.006-0.004 1.464-4.86c2.377 0.756 4.104 2.974 4.104 5.588zM8.938 9.322c0-3.235 2.644-5.867 5.894-5.867 0.253 0 0.5 0.022 0.745 0.053l-1.432 4.753c-0.019 0-0.037-0.006-0.057-0.006 0 0-0.001 0-0.001 0-1.032 0-1.869 0.835-1.872 1.867v0c0.003 1.031 0.84 1.867 1.872 1.867 0 0 0 0 0.001 0v0c0.695 0 1.295-0.383 1.618-0.944l3.863 1.755c-1.075 1.446-2.795 2.389-4.737 2.389-3.25 0-5.894-2.632-5.894-5.867zM14.895 10.122c0 0.441-0.362 0.8-0.806 0.8 0 0-0.001 0-0.001 0-0.443 0-0.802-0.358-0.804-0.8v0c0-0.441 0.361-0.8 0.806-0.8s0.806 0.359 0.806 0.8zM2.464 25.146c-0.11 0.109-0.261 0.176-0.428 0.176s-0.317-0.067-0.427-0.175v0c-0.109-0.108-0.176-0.257-0.176-0.422s0.067-0.314 0.176-0.422v0l0.962-0.959 0.852 0.848-0.959 0.955zM5.678 28.88c-0.11 0.109-0.261 0.176-0.428 0.176s-0.317-0.067-0.427-0.175v0c-0.109-0.108-0.176-0.257-0.176-0.422s0.067-0.314 0.176-0.422v0l0.963-0.959 0.852 0.848-0.96 0.955zM9.16 25.411l-0.001 0.001-1.765 1.76-0.852-0.848 1.765-1.757c0.040-0.040 0.065-0.088 0.090-0.136 0.007-0.014 0.020-0.026 0.026-0.040 0.016-0.041 0.019-0.085 0.026-0.128 0.003-0.025 0.014-0.048 0.014-0.073 0-0.035-0.013-0.070-0.020-0.105-0.006-0.032-0.006-0.064-0.019-0.096-0.025-0.053-0.055-0.098-0.092-0.138v0c-0.010-0.012-0.014-0.027-0.025-0.038h-0.001s0-0.001-0.001-0.002l-1.607-1.6c-0.017-0.017-0.039-0.024-0.058-0.038-0.025-0.021-0.054-0.040-0.084-0.057l-0.003-0.001c-0.026-0.013-0.058-0.023-0.090-0.031l-0.003-0.001c-0.030-0.009-0.065-0.017-0.101-0.020h-0.002c-0.007 0-0.015-0.001-0.023-0.001-0.026 0-0.051 0.002-0.075 0.005h0.003c-0.036 0.005-0.069 0.009-0.104 0.021-0.036 0.013-0.067 0.028-0.096 0.046l0.002-0.001c-0.020 0.011-0.043 0.015-0.061 0.029l-1.774 1.324-0.901-0.897 2.399-2.386 4.36 4.289-0.928 0.919zM15.979 18.394c-0.016-0.002-0.030 0.004-0.046 0.003-0.008 0-0.017-0.001-0.027-0.001-0.031 0-0.062 0.003-0.092 0.008h0.003c-0.070 0.011-0.132 0.035-0.187 0.070l0.002-0.001c-0.031 0.019-0.058 0.039-0.083 0.062v0c-0.013 0.011-0.028 0.016-0.040 0.029l-4.698 5.146-4.328-4.256 2.833-2.818c0.096-0.097 0.156-0.23 0.156-0.377 0-0.295-0.239-0.534-0.534-0.534-0.001 0-0.001 0-0.002 0v0l-2.219 0.013 0.028-1.607 3.104 0.027c1.264 1.297 3.027 2.101 4.978 2.101 0.001 0 0.002 0 0.003 0v0c0.438 0 0.864-0.046 1.28-0.122 0.040 0.032 0.080 0.064 0.129 0.085l2.41 0.96 0.152 0.759 0.178 0.885-3.003-0.427zM20.020 18.572l-0.313-1.558 1.446-1.080 0.946 1.257-2.080 1.381zM23.773 15.741l-0.837 0.785-0.931-1.237 0.831-0.637c0.155-0.119 0.351-0.168 0.543-0.143 0.193 0.027 0.364 0.128 0.48 0.284 0.088 0.117 0.141 0.265 0.141 0.426 0 0.206-0.087 0.391-0.226 0.521v0z"></path>
<path fill="#212121" style="fill: var(--color1, #212121)" d="M13.602 18.544l-2.143-2.134c-0.096-0.096-0.229-0.155-0.376-0.155s-0.28 0.059-0.376 0.155l-2.143 2.133c-0.097 0.097-0.156 0.23-0.156 0.378s0.060 0.281 0.156 0.378v0l2.142 2.134c0.096 0.096 0.229 0.156 0.376 0.156s0.28-0.059 0.376-0.156v0l2.143-2.134c0.097-0.097 0.157-0.23 0.157-0.378s-0.060-0.281-0.157-0.378v0zM11.083 20.303l-1.387-1.381 1.386-1.381 1.387 1.381-1.387 1.381zM17.164 5.071l-0.258 1.036c0.071 0.018 1.738 0.452 1.738 2.149h1.067c0-2.017-1.666-2.965-2.547-3.184zM19.711 9.322h-1.067v1.066h1.067v-1.066z"></path>
</symbol>
<symbol id="icon-clock" viewBox="0 0 32 32">
<path fill="#212121" style="fill: var(--color1, #212121)" d="M31.296 15.301c-0.001-8.452-6.855-15.303-15.308-15.301s-15.303 6.855-15.301 15.308c0.002 6.788 4.422 12.543 10.541 14.545l0.108 0.031c0.061 0.019 0.123 0.029 0.187 0.029 0.12 0 0.238-0.032 0.342-0.094 0.135-0.080 0.236-0.207 0.283-0.357l3.865-12.25c1.054-0.004 1.906-0.859 1.906-1.913 0-1.056-0.856-1.913-1.913-1.913-0.303 0-0.59 0.071-0.845 0.196l0.011-0.005-5.106-5.107c-0.114-0.11-0.271-0.179-0.443-0.179-0.352 0-0.638 0.286-0.638 0.638 0 0.172 0.068 0.328 0.179 0.443v0l5.103 5.109c-0.121 0.241-0.191 0.525-0.191 0.826 0 0.602 0.283 1.137 0.723 1.48l0.004 0.003-3.682 11.673c-7.278-2.681-11.004-10.754-8.324-18.032s10.754-11.004 18.032-8.323c7.278 2.681 11.004 10.754 8.323 18.032-1.345 3.581-4.003 6.406-7.374 7.938l-0.088 0.036-0.398-1.874c-0.063-0.291-0.318-0.506-0.624-0.506-0.164 0-0.313 0.062-0.426 0.163l0.001-0.001-3.837 3.426c-0.132 0.117-0.214 0.287-0.214 0.477 0 0.283 0.185 0.524 0.441 0.606l0.005 0.001 4.899 1.563c0.058 0.020 0.126 0.031 0.196 0.031 0.352 0 0.637-0.285 0.637-0.637 0-0.047-0.005-0.093-0.015-0.138l0.001 0.004-0.391-1.839c5.528-2.374 9.329-7.772 9.329-14.057 0-0.011 0-0.023 0-0.034v0.002zM15.992 14.664c0.352 0 0.638 0.286 0.638 0.638s-0.285 0.638-0.638 0.638v0c-0.352 0-0.638-0.286-0.638-0.638s0.286-0.638 0.638-0.638v0zM18.092 29.528l2.184-1.948 0.603 2.84-2.787-0.892z"></path>
<path fill="#2196f3" style="fill: var(--color2, #2196f3)" d="M15.354 3.185v1.275c0 0.352 0.286 0.638 0.638 0.638s0.638-0.285 0.638-0.638v0-1.275c0-0.352-0.285-0.638-0.638-0.638s-0.638 0.285-0.638 0.638v0zM3.876 14.664c-0.352 0-0.638 0.286-0.638 0.638s0.285 0.638 0.638 0.638h1.275c0.352 0 0.638-0.286 0.638-0.638s-0.285-0.638-0.638-0.638h-1.275zM28.108 15.939c0.352 0 0.638-0.286 0.638-0.638s-0.285-0.638-0.638-0.638h-1.275c-0.352 0-0.638 0.286-0.638 0.638s0.285 0.638 0.638 0.638h1.275z"></path>
</symbol>
<symbol id="icon-close" viewBox="0 0 32 32">
<path d="M32 3.223l-3.223-3.223-12.777 12.777-12.777-12.777-3.223 3.223 12.777 12.777-12.777 12.777 3.223 3.223 12.777-12.777 12.777 12.777 3.223-3.223-12.777-12.777 12.777-12.777z"></path>
</symbol>
<symbol id="icon-diagram" viewBox="0 0 32 32">
<path fill="#2196f3" style="fill: var(--color2, #2196f3)" d="M14.926 14.965h1.066v4.798h-1.066v-4.798zM19.19 17.097h1.066v2.665h-1.066v-2.665zM10.661 18.696h1.066v1.066h-1.066v-1.066zM7.463 18.163h1.066v1.599h-1.066v-1.599z"></path>
<path fill="#212121" style="fill: var(--color1, #212121)" d="M1.599 28.291h25.586c0 0 0 0 0 0 0.883 0 1.599-0.716 1.599-1.599v0-2.132c0-0.883-0.716-1.599-1.599-1.599v0h-0.533v-13.294l3.028-2.868c0.207 0.104 0.452 0.166 0.711 0.166 0.888 0 1.608-0.72 1.608-1.608s-0.72-1.608-1.608-1.608c-0.888 0-1.608 0.72-1.608 1.608 0 0.247 0.056 0.481 0.155 0.69l-0.004-0.010-2.281 2.162v-1.23c0-0.883-0.716-1.599-1.599-1.599v0h-21.323c-0.883 0-1.599 0.716-1.599 1.599v0 15.992h-0.533c-0.883 0-1.599 0.716-1.599 1.599v0 2.132c0 0.883 0.716 1.599 1.599 1.599v0zM30.384 4.837c0.294 0 0.533 0.239 0.533 0.533s-0.239 0.533-0.533 0.533v0c-0.294 0-0.533-0.239-0.533-0.533s0.239-0.533 0.533-0.533v0zM3.198 6.969c0-0.294 0.239-0.533 0.533-0.533h21.323c0.294 0 0.533 0.239 0.533 0.533v2.239l-1.066 1.013v-2.185c0-0.295-0.239-0.534-0.534-0.534h-19.189c-0.294 0-0.534 0.239-0.534 0.533v13.327c0 0.294 0.239 0.533 0.534 0.533h19.189c0.295 0 0.534-0.239 0.534-0.533v-9.675l1.066-1.010v12.283h-22.389v-15.991zM7.996 13.899c-0.001 0-0.003 0-0.005 0-0.883 0-1.599 0.716-1.599 1.599s0.716 1.599 1.599 1.599c0.432 0 0.824-0.172 1.112-0.45v0l1.853 0.93c0.215 0.107 0.476 0.057 0.636-0.122l3.939-4.432 3.872 2.902c0.208 0.155 0.498 0.139 0.686-0.039l3.365-3.188v8.131h-18.123v-12.261h18.123v2.661l-3.771 3.572-3.904-2.927c-0.088-0.067-0.2-0.107-0.32-0.107-0.158 0-0.3 0.069-0.398 0.178v0.001l-3.993 4.493-1.493-0.746c0.011-0.064 0.017-0.128 0.020-0.193 0-0.883-0.716-1.599-1.599-1.599v0zM8.529 15.498c0 0.294-0.239 0.533-0.533 0.533s-0.533-0.239-0.533-0.533v0c0-0.294 0.239-0.533 0.533-0.533s0.533 0.239 0.533 0.533v0zM11.727 24.026h5.33v0.533c0 0.294-0.238 0.533-0.533 0.533h-4.265c-0.294 0-0.533-0.239-0.533-0.533v0-0.533zM1.067 24.56c0-0.294 0.238-0.533 0.533-0.533h9.062v0.533c0 0.883 0.716 1.599 1.599 1.599v0h4.265c0.883 0 1.599-0.716 1.599-1.599v0-0.533h9.062c0.294 0 0.533 0.239 0.533 0.533v2.132c0 0.294-0.239 0.533-0.533 0.533h-25.586c0 0 0 0 0 0-0.294 0-0.533-0.239-0.533-0.533 0 0 0 0 0 0v0-2.132z"></path>
</symbol>
<symbol id="icon-email" viewBox="0 0 32 32">
<path d="M28 4h-24c-1.65 0-2.985 1.35-2.985 3l-0.015 18c0 1.65 1.35 3 3 3h24c1.65 0 3-1.35 3-3v-18c0-1.65-1.35-3-3-3zM27.4 10.375l-10.605 6.63c-0.48 0.3-1.11 0.3-1.59 0l-10.605-6.63c-0.375-0.24-0.6-0.645-0.6-1.080 0-1.005 1.095-1.605 1.95-1.080l10.050 6.285 10.050-6.285c0.855-0.525 1.95 0.075 1.95 1.080 0 0.435-0.225 0.84-0.6 1.080z"></path>
</symbol>
<symbol id="icon-envelope" viewBox="0 0 32 32">
<path d="M28 9.6h-25.6c-1.323 0-2.4 1.077-2.4 2.4v14.4c0 1.323 1.077 2.4 2.4 2.4h25.6c1.323 0 2.4-1.077 2.4-2.4v-14.4c0-1.323-1.077-2.4-2.4-2.4zM28 11.2c0.048 0 0.093 0.005 0.139 0.013l-12.051 8.034c-0.464 0.309-1.31 0.309-1.774 0l-12.051-8.034c0.042-0.008 0.090-0.013 0.139-0.013h25.6zM28 27.2h-25.6c-0.442 0-0.8-0.358-0.8-0.8v0-13.706l11.826 7.883c0.498 0.331 1.136 0.498 1.774 0.498s1.277-0.166 1.774-0.498l11.826-7.883v13.706c0 0.442-0.358 0.8-0.8 0.8v0z"></path>
</symbol>
<symbol id="icon-facebook" viewBox="0 0 32 32">
<path d="M21.329 5.313h2.921v-5.088c-0.504-0.069-2.237-0.225-4.256-0.225-4.212 0-7.097 2.649-7.097 7.519v4.481h-4.648v5.688h4.648v14.312h5.699v-14.311h4.46l0.708-5.688h-5.169v-3.919c0.001-1.644 0.444-2.769 2.735-2.769v0z"></path>
</symbol>
<symbol id="icon-facebook2" viewBox="0 0 32 32">
<path fill="#fff" style="fill: var(--color3, #fff)" d="M21.329 5.313h2.921v-5.088c-0.504-0.069-2.237-0.225-4.256-0.225-4.212 0-7.097 2.649-7.097 7.519v4.481h-4.648v5.688h4.648v14.312h5.699v-14.311h4.46l0.708-5.688h-5.169v-3.919c0.001-1.644 0.444-2.769 2.735-2.769v0z"></path>
</symbol>
<symbol id="icon-instagram" viewBox="0 0 32 32">
<path d="M31.969 9.408c-0.075-1.7-0.35-2.869-0.744-3.882-0.406-1.075-1.032-2.038-1.851-2.838-0.8-0.813-1.769-1.444-2.832-1.844-1.019-0.394-2.182-0.669-3.882-0.744-1.713-0.081-2.257-0.1-6.601-0.1s-4.888 0.019-6.595 0.094c-1.7 0.075-2.869 0.35-3.882 0.744-1.075 0.406-2.038 1.031-2.838 1.85-0.813 0.8-1.444 1.769-1.844 2.832-0.394 1.019-0.669 2.182-0.744 3.882-0.081 1.713-0.1 2.257-0.1 6.601s0.019 4.888 0.094 6.595c0.075 1.7 0.35 2.869 0.744 3.882 0.406 1.075 1.038 2.038 1.85 2.838 0.8 0.813 1.769 1.444 2.832 1.844 1.019 0.394 2.182 0.669 3.882 0.744 1.706 0.075 2.25 0.094 6.595 0.094s4.888-0.019 6.595-0.094c1.7-0.075 2.869-0.35 3.882-0.744 2.151-0.832 3.851-2.532 4.682-4.682 0.394-1.019 0.669-2.182 0.744-3.882 0.075-1.707 0.094-2.251 0.094-6.595s-0.006-4.888-0.081-6.595zM29.087 22.473c-0.069 1.563-0.331 2.407-0.55 2.969-0.538 1.394-1.644 2.5-3.038 3.038-0.563 0.219-1.413 0.481-2.969 0.55-1.688 0.075-2.194 0.094-6.464 0.094s-4.782-0.019-6.464-0.094c-1.563-0.069-2.407-0.331-2.969-0.55-0.694-0.256-1.325-0.663-1.838-1.194-0.531-0.519-0.938-1.144-1.194-1.838-0.219-0.563-0.481-1.413-0.55-2.969-0.075-1.688-0.094-2.194-0.094-6.464s0.019-4.782 0.094-6.464c0.069-1.563 0.331-2.407 0.55-2.969 0.256-0.694 0.663-1.325 1.2-1.838 0.519-0.531 1.144-0.938 1.838-1.194 0.563-0.219 1.413-0.481 2.969-0.55 1.688-0.075 2.194-0.094 6.464-0.094 4.276 0 4.782 0.019 6.464 0.094 1.563 0.069 2.407 0.331 2.969 0.55 0.694 0.256 1.325 0.662 1.838 1.194 0.531 0.519 0.938 1.144 1.194 1.838 0.219 0.563 0.481 1.413 0.55 2.969 0.075 1.688 0.094 2.194 0.094 6.464s-0.019 4.77-0.094 6.458z"></path>
<path d="M16.059 7.783c-4.538 0-8.22 3.682-8.22 8.22s3.682 8.22 8.22 8.22c4.539 0 8.22-3.682 8.22-8.22s-3.682-8.22-8.22-8.22zM16.059 21.335c-2.944 0-5.332-2.388-5.332-5.332s2.388-5.332 5.332-5.332c2.944 0 5.332 2.388 5.332 5.332s-2.388 5.332-5.332 5.332z"></path>
<path d="M26.524 7.458c0 1.060-0.859 1.919-1.919 1.919s-1.919-0.859-1.919-1.919c0-1.060 0.859-1.919 1.919-1.919s1.919 0.859 1.919 1.919z"></path>
</symbol>
<symbol id="icon-instagram2" viewBox="0 0 32 32">
<path fill="#fff" style="fill: var(--color3, #fff)" d="M31.969 9.408c-0.075-1.7-0.35-2.869-0.744-3.882-0.406-1.075-1.032-2.038-1.851-2.838-0.8-0.813-1.769-1.444-2.832-1.844-1.019-0.394-2.182-0.669-3.882-0.744-1.713-0.081-2.257-0.1-6.601-0.1s-4.888 0.019-6.595 0.094c-1.7 0.075-2.869 0.35-3.882 0.744-1.075 0.406-2.038 1.031-2.838 1.85-0.813 0.8-1.444 1.769-1.844 2.832-0.394 1.019-0.669 2.182-0.744 3.882-0.081 1.713-0.1 2.257-0.1 6.601s0.019 4.888 0.094 6.595c0.075 1.7 0.35 2.869 0.744 3.882 0.406 1.075 1.038 2.038 1.85 2.838 0.8 0.813 1.769 1.444 2.832 1.844 1.019 0.394 2.182 0.669 3.882 0.744 1.706 0.075 2.25 0.094 6.595 0.094s4.888-0.019 6.595-0.094c1.7-0.075 2.869-0.35 3.882-0.744 2.151-0.832 3.851-2.532 4.682-4.682 0.394-1.019 0.669-2.182 0.744-3.882 0.075-1.707 0.094-2.251 0.094-6.595s-0.006-4.888-0.081-6.595zM29.087 22.473c-0.069 1.563-0.331 2.407-0.55 2.969-0.538 1.394-1.644 2.5-3.038 3.038-0.563 0.219-1.413 0.481-2.969 0.55-1.688 0.075-2.194 0.094-6.464 0.094s-4.782-0.019-6.464-0.094c-1.563-0.069-2.407-0.331-2.969-0.55-0.694-0.256-1.325-0.663-1.838-1.194-0.531-0.519-0.938-1.144-1.194-1.838-0.219-0.563-0.481-1.413-0.55-2.969-0.075-1.688-0.094-2.194-0.094-6.464s0.019-4.782 0.094-6.464c0.069-1.563 0.331-2.407 0.55-2.969 0.256-0.694 0.663-1.325 1.2-1.838 0.519-0.531 1.144-0.938 1.838-1.194 0.563-0.219 1.413-0.481 2.969-0.55 1.688-0.075 2.194-0.094 6.464-0.094 4.276 0 4.782 0.019 6.464 0.094 1.563 0.069 2.407 0.331 2.969 0.55 0.694 0.256 1.325 0.662 1.838 1.194 0.531 0.519 0.938 1.144 1.194 1.838 0.219 0.563 0.481 1.413 0.55 2.969 0.075 1.688 0.094 2.194 0.094 6.464s-0.019 4.77-0.094 6.458z"></path>
<path fill="#fff" style="fill: var(--color3, #fff)" d="M16.059 7.783c-4.538 0-8.22 3.682-8.22 8.22s3.682 8.22 8.22 8.22c4.539 0 8.22-3.682 8.22-8.22s-3.682-8.22-8.22-8.22zM16.059 21.335c-2.944 0-5.332-2.388-5.332-5.332s2.388-5.332 5.332-5.332c2.944 0 5.332 2.388 5.332 5.332s-2.388 5.332-5.332 5.332z"></path>
<path fill="#fff" style="fill: var(--color3, #fff)" d="M26.524 7.458c0 1.060-0.859 1.919-1.919 1.919s-1.919-0.859-1.919-1.919c0-1.060 0.859-1.919 1.919-1.919s1.919 0.859 1.919 1.919z"></path>
</symbol>
<symbol id="icon-linkedin" viewBox="0 0 32 32">
<path d="M31.992 32v-0.001h0.008v-11.736c0-5.741-1.236-10.164-7.948-10.164-3.227 0-5.392 1.771-6.276 3.449h-0.093v-2.913h-6.364v21.364h6.627v-10.579c0-2.785 0.528-5.479 3.977-5.479 3.399 0 3.449 3.179 3.449 5.657v10.401h6.62z"></path>
<path d="M0.528 10.636h6.635v21.364h-6.635v-21.364z"></path>
<path d="M3.843 0c-2.121 0-3.843 1.721-3.843 3.843s1.721 3.879 3.843 3.879c2.121 0 3.843-1.757 3.843-3.879-0.001-2.121-1.723-3.843-3.843-3.843v0z"></path>
</symbol>
<symbol id="icon-linkedin2" viewBox="0 0 32 32">
<path fill="#fff" style="fill: var(--color3, #fff)" d="M31.992 32v-0.001h0.008v-11.736c0-5.741-1.236-10.164-7.948-10.164-3.227 0-5.392 1.771-6.276 3.449h-0.093v-2.913h-6.364v21.364h6.627v-10.579c0-2.785 0.528-5.479 3.977-5.479 3.399 0 3.449 3.179 3.449 5.657v10.401h6.62z"></path>
<path fill="#fff" style="fill: var(--color3, #fff)" d="M0.528 10.636h6.635v21.364h-6.635v-21.364z"></path>
<path fill="#fff" style="fill: var(--color3, #fff)" d="M3.843 0c-2.121 0-3.843 1.721-3.843 3.843s1.721 3.879 3.843 3.879c2.121 0 3.843-1.757 3.843-3.879-0.001-2.121-1.723-3.843-3.843-3.843v0z"></path>
</symbol>
<symbol id="icon-logo" viewBox="0 0 32 32">
<path d="M11.391 9.169l2.101 1.989-3.899-0.002v9.649h10.192v-3.689l2.098 1.986v-9.933h-10.492zM19.692 16.882l-5.957-5.639h5.957v5.639zM17.843 19.393h-6.638v-6.49h0.469v6.050h6.169v0.439zM12.773 22.089l-0.245 0.505-0.245-0.505h-0.206l0.358 0.673v0.393h0.186v-0.393l0.357-0.673h-0.205zM13.081 23.154l0.086-0.248h0.413l0.087 0.248h0.193l-0.403-1.066h-0.166l-0.402 1.066h0.193zM13.374 22.315l0.154 0.442h-0.309l0.154-0.442zM14.35 22.731c-0.025 0.038-0.040 0.084-0.040 0.134 0 0.001 0 0.001 0 0.002v0c0 0.090 0.031 0.163 0.094 0.219s0.148 0.083 0.253 0.083c0.106 0 0.197-0.029 0.273-0.086l0.060 0.071h0.206l-0.157-0.185c0.062-0.084 0.092-0.191 0.092-0.322h-0.154c0 0.071-0.015 0.137-0.045 0.195l-0.206-0.243 0.073-0.053c0.044-0.030 0.081-0.067 0.11-0.11l0.001-0.002c0.021-0.035 0.034-0.077 0.034-0.121 0-0.001 0-0.001 0-0.002v0c0-0.001 0-0.003 0-0.004 0-0.066-0.029-0.125-0.074-0.165v0c-0.047-0.043-0.11-0.069-0.18-0.069-0.003 0-0.007 0-0.011 0h0.001c-0.086 0-0.154 0.025-0.205 0.074-0.051 0.048-0.076 0.114-0.076 0.198 0 0.034 0.008 0.070 0.024 0.106s0.046 0.081 0.087 0.133c-0.079 0.057-0.132 0.106-0.158 0.147zM14.831 22.967c-0.046 0.037-0.104 0.059-0.168 0.060v0c-0.003 0-0.006 0-0.009 0-0.046 0-0.087-0.018-0.119-0.046v0c-0.030-0.029-0.048-0.069-0.048-0.114 0-0.002 0-0.004 0-0.006v0.001c0-0.057 0.029-0.108 0.088-0.153l0.023-0.016 0.233 0.275zM14.64 22.495c-0.050-0.062-0.075-0.113-0.075-0.154 0-0.035 0.010-0.065 0.031-0.089 0.019-0.022 0.047-0.035 0.078-0.035 0.002 0 0.003 0 0.005 0v0c0.001 0 0.002 0 0.004 0 0.029 0 0.056 0.011 0.076 0.030v0c0.021 0.019 0.031 0.043 0.031 0.071 0 0.001 0 0.002 0 0.004 0 0.039-0.018 0.075-0.045 0.099v0l-0.023 0.018-0.081 0.056zM16.374 23.074c0.073-0.064 0.115-0.153 0.126-0.266h-0.185c-0.010 0.076-0.033 0.13-0.070 0.163s-0.091 0.049-0.164 0.049c-0.079 0-0.14-0.030-0.181-0.091s-0.062-0.149-0.062-0.263v-0.094c0.001-0.114 0.023-0.199 0.066-0.258s0.106-0.089 0.186-0.089c0.069 0 0.122 0.017 0.157 0.051s0.058 0.089 0.067 0.166h0.185c-0.012-0.117-0.053-0.207-0.125-0.271s-0.166-0.096-0.284-0.096c-0.087 0-0.164 0.021-0.231 0.062-0.067 0.043-0.119 0.103-0.152 0.174l-0.001 0.002c-0.034 0.074-0.054 0.162-0.054 0.253 0 0.005 0 0.009 0 0.013v-0.001 0.099c0.002 0.098 0.020 0.184 0.055 0.258s0.085 0.131 0.149 0.172c0.065 0.040 0.14 0.060 0.225 0.060 0.121 0 0.219-0.032 0.292-0.095zM17.462 22.925c0.036-0.079 0.054-0.171 0.054-0.275v-0.059c0-0.003 0-0.007 0-0.011 0-0.095-0.021-0.185-0.057-0.266l0.002 0.004c-0.034-0.075-0.087-0.137-0.154-0.179l-0.002-0.001c-0.067-0.042-0.144-0.063-0.231-0.063s-0.163 0.021-0.231 0.063c-0.067 0.042-0.119 0.102-0.156 0.182-0.035 0.077-0.055 0.167-0.055 0.262 0 0.005 0 0.009 0 0.014v-0.001 0.060c0.001 0.102 0.019 0.192 0.055 0.27s0.089 0.138 0.157 0.181c0.068 0.042 0.145 0.063 0.231 0.063 0.087 0 0.165-0.021 0.231-0.063 0.067-0.043 0.119-0.103 0.155-0.182zM17.265 22.322c0.045 0.063 0.067 0.154 0.067 0.271v0.055c0 0.12-0.022 0.211-0.066 0.274s-0.107 0.094-0.189 0.094c-0.002 0-0.005 0-0.007 0-0.075 0-0.142-0.038-0.182-0.095l-0.001-0.001c-0.046-0.064-0.068-0.154-0.068-0.271v-0.062c0.001-0.114 0.024-0.203 0.069-0.266 0.040-0.058 0.106-0.095 0.18-0.095 0.003 0 0.006 0 0.008 0h-0.001c0.082 0 0.145 0.031 0.19 0.094z"></path>
</symbol>
<symbol id="icon-logo1" viewBox="0 0 32 32">
<path d="M15.022 8.85h-0.041c-0.063-0.004-0.126-0.005-0.189-0.007h-0.137c-0.119 0-0.241 0.003-0.361 0.009-0.004-0.001-0.009-0.001-0.014-0.001s-0.010 0-0.014 0.001h0.001c-1.157 0.067-2.232 0.357-3.203 0.826l0.051-0.022-0.13 0.063v6.637l0.303-0.103c0.266-0.091 0.55-0.174 0.843-0.25 0.725-0.194 1.559-0.311 2.419-0.322h0.007v0.872c-0.115 0.001-0.226 0.004-0.337 0.010l0.018-0.001h-0.025c-0.681 0.038-1.32 0.141-1.934 0.302l0.067-0.015c-0.845 0.215-1.585 0.512-2.273 0.891l0.049-0.025v-8.513c0.672-0.399 1.449-0.725 2.272-0.935l0.062-0.013c0.659-0.177 1.417-0.281 2.197-0.283h0.13c0.153 0.004 0.303 0.011 0.443 0.021 0.404 0.029 0.778 0.091 1.139 0.185l-0.044-0.010v0.858c-0.313-0.077-0.683-0.134-1.062-0.161l-0.021-0.001c-0.074-0.006-0.148-0.013-0.217-0.013zM16.533 9.727c0.19 0.014 0.387 0.021 0.587 0.021 0.823-0.003 1.619-0.111 2.378-0.311l-0.066 0.015c0.845-0.215 1.585-0.513 2.273-0.893l-0.049 0.025v8.361c-0.672 0.399-1.449 0.725-2.272 0.935l-0.062 0.014c-0.659 0.177-1.417 0.279-2.197 0.283h-0.002c-0.016 0-0.035 0-0.054 0-0.573 0-1.13-0.072-1.661-0.207l0.046 0.010v-8.415c0.129 0.030 0.262 0.057 0.397 0.080 0.186 0.033 0.421 0.062 0.658 0.081l0.025 0.002zM20.788 9.792l-0.303 0.102c-0.183 0.067-0.465 0.154-0.75 0.231l-0.094 0.022c-0.755 0.202-1.623 0.32-2.518 0.323h-0.002c-0.198 0-0.38-0.005-0.556-0.017l-0.242-0.016v6.828l0.208 0.018c0.193 0.017 0.391 0.026 0.591 0.026 0.706-0.003 1.39-0.097 2.041-0.27l-0.056 0.013c0.595-0.151 1.111-0.342 1.601-0.579l-0.050 0.022 0.13-0.062v-6.639z"></path>
<path d="M10.713 20.624c-0.082-0.085-0.195-0.137-0.322-0.137-0.006 0-0.011 0-0.017 0.001h0.001c-0.002 0-0.004 0-0.007 0-0.068 0-0.133 0.014-0.191 0.038l0.003-0.001c-0.115 0.046-0.205 0.137-0.249 0.249l-0.001 0.003c-0.024 0.060-0.035 0.124-0.035 0.188v1.137c0 0.005-0.001 0.012-0.001 0.018 0 0.078 0.017 0.151 0.046 0.218l-0.001-0.003c0.027 0.058 0.066 0.11 0.114 0.153 0.045 0.038 0.099 0.066 0.156 0.081 0.055 0.015 0.113 0.023 0.17 0.023 0.063 0.001 0.126-0.013 0.183-0.039 0.171-0.076 0.287-0.244 0.288-0.439v-0.127h-0.298v0.101c0 0.002 0 0.005 0 0.007 0 0.034-0.006 0.066-0.018 0.096l0.001-0.002c-0.010 0.025-0.025 0.046-0.043 0.064v0c-0.034 0.026-0.077 0.043-0.124 0.043v0c-0.005 0.001-0.011 0.001-0.017 0.001-0.050 0-0.094-0.025-0.122-0.062v-0.001c-0.025-0.040-0.040-0.089-0.040-0.141 0-0.004 0-0.008 0-0.012v0.001-1.061c-0.002-0.059 0.011-0.117 0.037-0.17 0.027-0.042 0.074-0.070 0.128-0.070 0.006 0 0.013 0.001 0.018 0.001h-0.001c0.002 0 0.003 0 0.006 0 0.052 0 0.098 0.025 0.127 0.064l0.001 0.001c0.031 0.040 0.049 0.091 0.049 0.146 0 0.002 0 0.005 0 0.007v-0.001 0.098h0.294v-0.116c0-0.001 0-0.003 0-0.005 0-0.070-0.013-0.137-0.038-0.198l0.001 0.003c-0.023-0.062-0.057-0.115-0.099-0.161v0zM12.479 20.611c-0.091-0.077-0.209-0.124-0.338-0.125v0c-0.061 0.001-0.121 0.011-0.178 0.032-0.123 0.044-0.219 0.134-0.271 0.25l-0.001 0.003c-0.030 0.069-0.045 0.145-0.043 0.221v1.091c-0.002 0.077 0.013 0.153 0.043 0.223 0.027 0.058 0.066 0.111 0.115 0.153 0.046 0.042 0.099 0.075 0.157 0.096 0.053 0.020 0.114 0.031 0.177 0.031 0.13 0 0.249-0.049 0.339-0.128l-0.001 0.001c0.047-0.043 0.085-0.094 0.112-0.153 0.030-0.070 0.045-0.147 0.043-0.223v-1.091c0-0.003 0-0.006 0-0.010 0-0.076-0.016-0.149-0.045-0.214l0.001 0.003c-0.028-0.062-0.066-0.115-0.112-0.159v0zM12.34 22.082c0.001 0.005 0.001 0.011 0.001 0.017 0 0.055-0.023 0.105-0.059 0.141v0c-0.038 0.031-0.086 0.051-0.14 0.051s-0.102-0.019-0.141-0.051h0.001c-0.037-0.035-0.060-0.085-0.060-0.141 0-0.006 0-0.012 0.001-0.018v0.001-1.091c-0.001-0.005-0.001-0.011-0.001-0.017 0-0.055 0.023-0.105 0.060-0.141v0c0.038-0.031 0.086-0.051 0.14-0.051s0.102 0.019 0.141 0.051h-0.001c0.037 0.035 0.060 0.086 0.060 0.141 0 0.006 0 0.012-0.001 0.018v-0.001 1.091zM14.798 22.569v-2.065h-0.286l-0.376 1.093h-0.005l-0.379-1.093h-0.283v2.065h0.295v-1.257h0.005l0.289 0.888h0.147l0.291-0.888h0.005v1.256h0.295zM16.474 20.649c-0.045-0.051-0.103-0.090-0.167-0.113-0.060-0.020-0.13-0.032-0.202-0.032-0.005 0-0.009 0-0.013 0h-0.438v2.065h0.294v-0.806h0.151c0.092 0.004 0.183-0.015 0.266-0.057 0.067-0.038 0.122-0.091 0.161-0.156l0.001-0.002c0.034-0.055 0.057-0.116 0.067-0.18 0.011-0.078 0.017-0.156 0.016-0.235 0.003-0.099-0.007-0.198-0.029-0.295-0.021-0.074-0.058-0.138-0.109-0.19v0zM16.323 21.278c-0.001 0.039-0.011 0.077-0.028 0.109l0.001-0.002c-0.017 0.031-0.043 0.057-0.075 0.072l-0.001 0.001c-0.037 0.017-0.079 0.026-0.123 0.026-0.005 0-0.011 0-0.016-0.001h-0.134v-0.702h0.151c0.004 0 0.009-0.001 0.014-0.001 0.043 0 0.084 0.010 0.121 0.027l-0.002-0.001c0.030 0.018 0.054 0.044 0.069 0.075l0.001 0.001c0.016 0.036 0.025 0.075 0.026 0.115v0.137c0 0.048 0.003 0.098 0 0.142h-0.003zM17.869 20.503h-0.241l-0.455 2.065h0.294l0.086-0.443h0.401l0.086 0.443h0.294l-0.466-2.065zM17.597 21.843l0.145-0.749h0.005l0.144 0.749h-0.294zM19.77 21.747h-0.005l-0.444-1.244h-0.283v2.065h0.294v-1.242h0.006l0.45 1.242h0.277v-2.065h-0.294v1.244zM21.567 20.503l-0.237 0.821h-0.006l-0.237-0.821h-0.311l0.404 1.193v0.873h0.294v-0.873l0.404-1.192h-0.312zM9.892 23.152h0.142v0.398h0.096v-0.398h0.141v-0.082h-0.379v0.082zM11.085 23.070l-0.186 0.479h0.102l0.039-0.109h0.191l0.041 0.109h0.105l-0.191-0.479h-0.102zM11.070 23.36l0.065-0.178 0.065 0.178h-0.13zM12.263 23.373h0.111v0.062c-0.031 0.025-0.071 0.040-0.114 0.041v0c-0.002 0-0.005 0-0.007 0-0.038 0-0.073-0.018-0.095-0.046v0c-0.022-0.032-0.035-0.071-0.035-0.114 0-0.004 0-0.007 0.001-0.011v0.001c0-0.107 0.046-0.16 0.138-0.16 0.003-0.001 0.007-0.001 0.010-0.001 0.047 0 0.087 0.033 0.098 0.076v0.001l0.095-0.018c-0.021-0.094-0.088-0.141-0.203-0.141-0.002 0-0.005 0-0.007 0-0.062 0-0.118 0.023-0.161 0.062v0c-0.043 0.042-0.070 0.101-0.070 0.166 0 0.006 0 0.013 0.001 0.019v-0.001c0 0.003 0 0.007 0 0.011 0 0.065 0.023 0.123 0.062 0.169l-0.001-0.001c0.042 0.043 0.102 0.071 0.167 0.071 0.005 0 0.010 0 0.015-0.001h-0.001c0.002 0 0.005 0 0.007 0 0.075 0 0.145-0.029 0.196-0.077v0-0.189h-0.208v0.081zM13.466 23.070h-0.097v0.479h0.336v-0.082h-0.239v-0.398zM14.484 23.070h-0.097v0.479h0.097v-0.479zM15.479 23.39l-0.197-0.32h-0.094v0.479h0.090v-0.314l0.193 0.313h0.097v-0.479h-0.089v0.321zM16.378 23.338h0.239v-0.081h-0.239v-0.105h0.257v-0.082h-0.354v0.479h0.364v-0.082h-0.267v-0.13zM18.559 23.259h-0.189v-0.189h-0.096v0.479h0.096v-0.21h0.189v0.21h0.097v-0.479h-0.097v0.189zM19.464 23.338h0.24v-0.081h-0.24v-0.105h0.258v-0.082h-0.354v0.479h0.363v-0.082h-0.267v-0.13zM20.691 23.338c0.083-0.013 0.126-0.057 0.126-0.133 0.001-0.004 0.001-0.009 0.001-0.014 0-0.038-0.019-0.072-0.047-0.093h-0.001c-0.035-0.018-0.077-0.029-0.122-0.029-0.006 0-0.013 0-0.019 0.001h-0.202v0.479h0.097v-0.201h0.019c0.002 0 0.005 0 0.008 0 0.019 0 0.037 0.004 0.053 0.011l-0.001-0.001c0.014 0.009 0.026 0.021 0.034 0.035l0.105 0.153h0.115l-0.058-0.094c-0.026-0.047-0.062-0.085-0.105-0.114l-0.001-0.001zM20.594 23.273h-0.071v-0.121h0.076c0.006-0.001 0.013-0.001 0.020-0.001 0.027 0 0.054 0.005 0.079 0.013l-0.002-0.001c0.013 0.011 0.021 0.028 0.021 0.047 0 0.011-0.003 0.021-0.008 0.030v-0.001c-0.005 0.009-0.011 0.015-0.018 0.021v0c-0.024 0.007-0.051 0.012-0.080 0.012-0.006 0-0.013 0-0.019-0.001h0.001zM21.616 23.338h0.239v-0.081h-0.239v-0.105h0.258v-0.082h-0.355v0.479h0.364v-0.082h-0.267v-0.13z"></path>
</symbol>
<symbol id="icon-logo2" viewBox="0 0 32 32">
<path d="M10.901 21.719c0.005 0 0.010 0.001 0.014 0.003s0.008 0.004 0.012 0.007v0l0.065 0.062c-0.051 0.051-0.113 0.091-0.184 0.118-0.072 0.027-0.156 0.043-0.244 0.043-0.006 0-0.012 0-0.018 0h0.001c-0.084 0.002-0.167-0.012-0.245-0.040-0.071-0.026-0.133-0.064-0.185-0.112l0.001 0.001c-0.051-0.048-0.091-0.105-0.118-0.17l-0.001-0.003c-0.026-0.064-0.042-0.138-0.042-0.216 0-0.002 0-0.005 0-0.007v0.001c0-0.003 0-0.007 0-0.012 0-0.152 0.066-0.289 0.171-0.384l0.001-0.001c0.056-0.049 0.123-0.087 0.196-0.113 0.080-0.027 0.166-0.040 0.253-0.039 0.005 0 0.010 0 0.016 0 0.078 0 0.153 0.013 0.223 0.038l-0.005-0.002c0.065 0.025 0.124 0.058 0.176 0.101l-0.055 0.066c-0.004 0.005-0.008 0.008-0.013 0.012v0c-0.006 0.003-0.012 0.005-0.019 0.005-0.001 0-0.002 0-0.003 0v0c-0.009-0.001-0.017-0.003-0.024-0.007v0l-0.029-0.018-0.041-0.023c-0.037-0.018-0.081-0.032-0.126-0.039l-0.003-0.001c-0.027-0.005-0.058-0.007-0.090-0.007-0.002 0-0.005 0-0.007 0h0.001c-0.002 0-0.004 0-0.006 0-0.063 0-0.123 0.011-0.179 0.031l0.004-0.001c-0.054 0.019-0.102 0.047-0.142 0.084-0.041 0.038-0.072 0.084-0.093 0.133-0.021 0.050-0.033 0.108-0.033 0.17 0 0.002 0 0.005 0 0.007v-0.001c-0.001 0.061 0.010 0.121 0.033 0.179 0.022 0.052 0.052 0.096 0.090 0.133v0c0.038 0.036 0.084 0.065 0.136 0.083 0.053 0.019 0.111 0.029 0.168 0.029 0.033 0.001 0.067-0.002 0.1-0.006 0.083-0.008 0.157-0.042 0.216-0.092l-0.001 0.001c0.008-0.007 0.019-0.011 0.031-0.011v0zM12.786 21.406c0.001 0.075-0.014 0.15-0.044 0.221-0.029 0.067-0.071 0.125-0.122 0.171l-0.001 0.001c-0.054 0.048-0.118 0.086-0.189 0.111l-0.004 0.001c-0.074 0.025-0.159 0.040-0.248 0.040s-0.174-0.015-0.254-0.042l0.006 0.002c-0.074-0.026-0.138-0.065-0.192-0.113l0.001 0.001c-0.052-0.047-0.094-0.105-0.123-0.17l-0.001-0.003c-0.028-0.065-0.044-0.141-0.044-0.221s0.016-0.155 0.045-0.225l-0.002 0.004c0.028-0.065 0.070-0.123 0.124-0.173 0.054-0.048 0.12-0.084 0.191-0.109 0.074-0.026 0.159-0.040 0.248-0.040s0.174 0.015 0.254 0.042l-0.006-0.002c0.072 0.025 0.138 0.064 0.193 0.113s0.096 0.108 0.123 0.171c0.030 0.071 0.045 0.147 0.044 0.222zM12.615 21.406c0-0.003 0-0.006 0-0.010 0-0.061-0.011-0.118-0.033-0.171l0.001 0.003c-0.040-0.102-0.121-0.181-0.222-0.216l-0.003-0.001c-0.054-0.019-0.116-0.029-0.18-0.029s-0.126 0.011-0.185 0.030l0.004-0.001c-0.054 0.019-0.1 0.048-0.138 0.084v0c-0.038 0.036-0.069 0.080-0.088 0.13l-0.001 0.002c-0.020 0.053-0.031 0.113-0.031 0.177s0.011 0.125 0.033 0.181l-0.001-0.003c0.040 0.102 0.122 0.181 0.224 0.215l0.003 0.001c0.116 0.038 0.244 0.038 0.361 0 0.052-0.019 0.099-0.047 0.138-0.083 0.039-0.039 0.069-0.084 0.088-0.133 0.022-0.057 0.033-0.117 0.031-0.177zM14.073 21.592l0.017 0.039c0.006-0.014 0.012-0.027 0.019-0.039 0.006-0.013 0.013-0.026 0.021-0.039l0.417-0.659c0.008-0.011 0.016-0.019 0.024-0.021s0.019-0.004 0.029-0.004c0.002 0 0.004 0 0.006 0v0h0.123v1.072h-0.146v-0.821c-0.001-0.006-0.001-0.012-0.001-0.019s0-0.013 0.001-0.020v0.001l-0.42 0.668c-0.006 0.010-0.014 0.019-0.024 0.024h-0.001c-0.010 0.006-0.022 0.009-0.035 0.009 0 0-0.001 0-0.001 0h-0.024c0 0-0.001 0-0.001 0-0.013 0-0.025-0.003-0.035-0.009h0.001c-0.010-0.006-0.019-0.014-0.024-0.024v-0.001l-0.432-0.673v0.86h-0.141v-1.069h0.123c0.002 0 0.004 0 0.006 0 0.010 0 0.020 0.001 0.030 0.004h-0.001c0.010 0.005 0.018 0.012 0.023 0.021l0.426 0.66c0.008 0.012 0.016 0.025 0.021 0.038zM15.642 21.538v0.401h-0.163v-1.070h0.364c0.069-0.001 0.138 0.007 0.203 0.024 0.053 0.013 0.102 0.036 0.144 0.067 0.035 0.027 0.062 0.063 0.081 0.103l0.001 0.002c0.020 0.044 0.029 0.090 0.028 0.137 0 0.002 0 0.005 0 0.007 0 0.097-0.046 0.182-0.117 0.237l-0.001 0.001c-0.042 0.032-0.091 0.056-0.145 0.071-0.055 0.016-0.118 0.025-0.184 0.025-0.005 0-0.009 0-0.013 0l-0.197-0.003zM15.642 21.423h0.198c0.043 0.001 0.086-0.005 0.127-0.016 0.035-0.010 0.065-0.026 0.092-0.047l-0.001 0.001c0.046-0.038 0.075-0.095 0.075-0.158 0-0.001 0-0.002 0-0.003v0c0-0.003 0.001-0.007 0.001-0.012 0-0.027-0.006-0.053-0.017-0.077l0.001 0.001c-0.013-0.029-0.033-0.053-0.057-0.073l-0.001-0.001c-0.054-0.037-0.122-0.058-0.194-0.058-0.009 0-0.018 0.001-0.027 0.001h-0.197v0.441zM17.837 21.941h-0.129c-0.001 0-0.002 0-0.002 0-0.012 0-0.024-0.004-0.034-0.010v0c-0.009-0.006-0.016-0.015-0.021-0.025v-0.001l-0.111-0.259h-0.558l-0.115 0.259c-0.005 0.010-0.012 0.018-0.020 0.024v0c-0.010 0.007-0.022 0.011-0.035 0.011-0.001 0-0.002 0-0.002 0h-0.129l0.49-1.072h0.17l0.496 1.072zM17.029 21.543h0.461l-0.195-0.436c-0.015-0.033-0.027-0.066-0.037-0.101l-0.019 0.056c-0.006 0.019-0.012 0.034-0.019 0.049l0.001-0.003-0.193 0.435zM18.543 20.875c0.010 0.005 0.018 0.011 0.025 0.019l0.714 0.808v-0.832h0.146v1.072h-0.081c-0.001 0-0.001 0-0.002 0-0.011 0-0.022-0.002-0.032-0.007h0.001c-0.010-0.005-0.019-0.012-0.026-0.020v0l-0.714-0.807c0.001 0.006 0.001 0.012 0.001 0.019s0 0.013-0.001 0.019v-0.001 0.797h-0.146v-1.072h0.086c0.010 0 0.020 0.002 0.029 0.005zM20.63 21.515v0.426h-0.163v-0.425l-0.451-0.646h0.146c0.001 0 0.002 0 0.004 0 0.012 0 0.022 0.003 0.031 0.009v0c0.009 0.007 0.016 0.015 0.022 0.024l0.282 0.417c0.019 0.027 0.036 0.059 0.049 0.092l0.001 0.003 0.021-0.046c0.008-0.017 0.017-0.033 0.027-0.049l0.278-0.419c0.006-0.008 0.013-0.016 0.021-0.022v0c0.009-0.007 0.020-0.011 0.033-0.011 0.001 0 0.002 0 0.003 0h0.148l-0.452 0.648zM13.992 19.071c0.071 0.008 0.143 0.014 0.216 0.020 1.101-0.428 2.033-1.129 2.679-2.014s0.976-1.917 0.951-2.965l-1.214-1.054c0.246 1.116 0.131 2.27-0.333 3.332s-1.26 1.991-2.298 2.683z"></path>
<path d="M13.558 19.021l0.033 0.006c1.109-0.689 1.954-1.652 2.427-2.763s0.551-2.32 0.225-3.47l-1.729-1.502c0.699 1.235 0.981 2.617 0.811 3.985s-0.781 2.667-1.767 3.744zM19.422 15.349c-0.294 1.152-1.007 2.191-2.034 2.962-0.281 0.213-0.597 0.414-0.931 0.586l-0.037 0.017c0.837-0.213 1.605-0.591 2.247-1.104s1.14-1.146 1.455-1.853l-0.701-0.609z"></path>
<path d="M19.148 15.18l-0.999-0.867c-0.019 0.989-0.343 1.955-0.937 2.799s-1.438 1.534-2.443 1.998h0.005c0.224 0 0.447-0.012 0.67-0.035 0.94-0.333 1.769-0.863 2.416-1.543s1.089-1.488 1.288-2.352zM13.703 10.658l-1.191-1.036c-1.065 0.358-1.98 0.986-2.627 1.803s-0.995 1.785-0.998 2.777c0.004 1.096 0.428 2.159 1.206 3.022s1.864 1.475 3.088 1.741c1.092-1.157 1.732-2.585 1.826-4.079s-0.363-2.975-1.304-4.228zM21.899 15.020c-0.004-1.3-0.601-2.546-1.659-3.466s-2.492-1.438-3.989-1.441c-0.692-0.001-1.377 0.111-2.022 0.327l7.292 6.336c0.237-0.516 0.377-1.12 0.377-1.756v0z"></path>
</symbol>
<symbol id="icon-logo3" viewBox="0 0 32 32">
<path d="M7.23 13.336h-0.001c-0.718 0-1.3 0.517-1.3 1.155v0.001c0 0.638 0.582 1.155 1.3 1.155h0.001c0.718 0 1.3-0.518 1.3-1.155v-0.001c0-0.638-0.582-1.156-1.3-1.156zM16.826 12.967c-0.002-0.886-0.399-1.736-1.104-2.363s-1.661-0.98-2.658-0.982c-0.998 0.002-1.954 0.354-2.659 0.981s-1.103 1.476-1.105 2.363v4.888s7.526-0.745 7.526-4.886v-0.001zM3.294 19.458c0.002 0.617 0.278 1.208 0.769 1.644s1.155 0.682 1.849 0.684c0.694-0.002 1.359-0.248 1.849-0.684s0.767-1.027 0.769-1.643v-3.401s-5.236 0.519-5.236 3.4zM5.912 20.067c-0.136 0-0.268-0.035-0.381-0.103-0.109-0.065-0.197-0.158-0.251-0.269l-0.002-0.004c-0.033-0.068-0.052-0.148-0.052-0.233 0-0.042 0.005-0.083 0.014-0.123l-0.001 0.004c0.026-0.118 0.091-0.227 0.188-0.312s0.218-0.143 0.351-0.167c0.040-0.007 0.086-0.012 0.134-0.012 0.094 0 0.184 0.017 0.267 0.048l-0.005-0.002c0.125 0.046 0.232 0.124 0.308 0.225s0.116 0.218 0.116 0.339c0.001 0.080-0.017 0.16-0.052 0.234-0.037 0.078-0.087 0.144-0.148 0.198l-0.001 0.001c-0.063 0.057-0.139 0.102-0.223 0.133-0.078 0.030-0.168 0.047-0.262 0.047 0 0-0.001 0-0.001 0v0-0.002zM11.203 19.732h-0.505v0.522h-0.263v-1.278h0.832v0.213h-0.569v0.33h0.505v0.212zM12.468 19.644c0 0.126-0.022 0.236-0.066 0.331s-0.108 0.168-0.191 0.22c-0.078 0.048-0.173 0.077-0.275 0.077-0.003 0-0.007 0-0.010 0h0.001c-0.106 0-0.2-0.025-0.284-0.076-0.084-0.053-0.15-0.127-0.191-0.214l-0.001-0.003c-0.044-0.093-0.069-0.201-0.069-0.315 0-0.004 0-0.008 0-0.012v0.001-0.063c0-0.126 0.022-0.236 0.067-0.332s0.109-0.17 0.192-0.22c0.083-0.052 0.177-0.077 0.284-0.077s0.2 0.026 0.284 0.077c0.083 0.051 0.147 0.124 0.192 0.22s0.069 0.205 0.069 0.331v0.057zM12.202 19.586c0-0.134-0.024-0.236-0.072-0.305-0.043-0.063-0.114-0.104-0.195-0.104-0.003 0-0.007 0-0.011 0h0.001c-0.003 0-0.007 0-0.010 0-0.081 0-0.152 0.041-0.194 0.103l-0.001 0.001c-0.048 0.069-0.072 0.169-0.073 0.302v0.062c0 0.13 0.024 0.231 0.072 0.303s0.117 0.108 0.207 0.108c0.003 0 0.007 0 0.010 0 0.080 0 0.151-0.041 0.193-0.103l0.001-0.001c0.047-0.070 0.071-0.171 0.072-0.304v-0.062zM13.322 19.919c0-0.002 0-0.005 0-0.007 0-0.043-0.021-0.081-0.052-0.106h-0.001c-0.035-0.027-0.098-0.055-0.19-0.084-0.084-0.026-0.156-0.056-0.224-0.091l0.008 0.003c-0.145-0.079-0.218-0.184-0.218-0.317 0-0.069 0.019-0.131 0.058-0.184 0.039-0.054 0.095-0.097 0.168-0.127s0.155-0.045 0.245-0.045c0.091 0 0.172 0.016 0.244 0.050s0.127 0.079 0.166 0.14c0.040 0.060 0.060 0.129 0.060 0.205h-0.263c0-0.058-0.018-0.104-0.055-0.136-0.037-0.033-0.089-0.049-0.155-0.049-0.065 0-0.115 0.014-0.15 0.042-0.033 0.024-0.054 0.061-0.054 0.104 0 0.001 0 0.002 0 0.003v0c0 0.042 0.021 0.076 0.062 0.104s0.104 0.054 0.185 0.079c0.15 0.045 0.259 0.101 0.327 0.168s0.103 0.15 0.103 0.249c0 0.111-0.042 0.198-0.126 0.261s-0.196 0.094-0.337 0.094c-0.098 0-0.188-0.018-0.268-0.054-0.076-0.032-0.139-0.083-0.184-0.147l-0.001-0.001c-0.039-0.059-0.063-0.131-0.063-0.209 0-0.003 0-0.006 0-0.008v0.001h0.264c0 0.141 0.084 0.212 0.253 0.212 0.062 0 0.111-0.012 0.147-0.038 0.032-0.023 0.052-0.060 0.052-0.102 0-0.002 0-0.003 0-0.005v0zM14.726 19.19h-0.391v1.064h-0.263v-1.064h-0.385v-0.213h1.040v0.213zM15.645 19.7h-0.505v0.342h0.593v0.212h-0.856v-1.278h0.854v0.213h-0.591v0.304h0.505v0.206zM16.36 19.786h-0.209v0.468h-0.263v-1.278h0.474c0.151 0 0.267 0.034 0.349 0.101s0.123 0.162 0.123 0.285c0 0.087-0.019 0.16-0.057 0.218-0.042 0.061-0.101 0.109-0.168 0.138l-0.003 0.001 0.276 0.522v0.012h-0.282l-0.24-0.467zM16.151 19.573h0.213c0.066 0 0.117-0.016 0.153-0.050 0.034-0.033 0.054-0.079 0.054-0.13 0-0.003 0-0.007 0-0.010v0.001c0-0.061-0.017-0.108-0.052-0.142s-0.086-0.052-0.157-0.052h-0.212v0.383zM17.745 19.803v0.45h-0.263v-1.278h0.498c0.096 0 0.18 0.017 0.253 0.053s0.129 0.085 0.168 0.15c0.039 0.065 0.059 0.138 0.059 0.22 0 0.125-0.043 0.224-0.129 0.296s-0.204 0.108-0.355 0.108h-0.231zM17.745 19.591h0.235c0.070 0 0.123-0.016 0.159-0.049 0.037-0.033 0.056-0.080 0.056-0.14 0-0.003 0-0.006 0-0.010 0-0.055-0.021-0.105-0.056-0.143v0c-0.037-0.038-0.088-0.058-0.153-0.059h-0.241v0.401zM19.41 19.7h-0.505v0.342h0.593v0.212h-0.856v-1.278h0.854v0.213h-0.591v0.304h0.505v0.206zM20.632 19.19h-0.391v1.064h-0.263v-1.064h-0.386v-0.213h1.040v0.213zM21.551 19.7h-0.505v0.342h0.593v0.212h-0.856v-1.278h0.854v0.213h-0.591v0.304h0.505v0.206zM22.266 19.786h-0.209v0.468h-0.263v-1.278h0.475c0.151 0 0.267 0.034 0.349 0.101s0.123 0.162 0.123 0.285c0 0.087-0.019 0.16-0.057 0.218-0.042 0.061-0.101 0.109-0.169 0.138l-0.003 0.001 0.276 0.522v0.012h-0.282l-0.24-0.467zM22.056 19.573h0.212c0.066 0 0.117-0.016 0.153-0.050 0.034-0.033 0.054-0.079 0.054-0.13 0-0.003 0-0.007 0-0.010v0.001c0-0.061-0.017-0.108-0.052-0.142-0.034-0.034-0.086-0.052-0.157-0.052h-0.212v0.383zM23.603 19.919c0-0.002 0-0.005 0-0.007 0-0.043-0.021-0.082-0.053-0.106h-0.001c-0.035-0.027-0.098-0.055-0.19-0.084-0.084-0.026-0.156-0.056-0.224-0.091l0.008 0.003c-0.145-0.079-0.218-0.184-0.218-0.317 0-0.069 0.020-0.131 0.058-0.184 0.039-0.054 0.095-0.097 0.168-0.127s0.155-0.045 0.245-0.045c0.091 0 0.172 0.016 0.244 0.050s0.127 0.079 0.166 0.14c0.040 0.060 0.060 0.129 0.060 0.205h-0.263c0-0.058-0.018-0.104-0.055-0.136-0.037-0.033-0.089-0.049-0.155-0.049-0.065 0-0.115 0.014-0.15 0.042-0.033 0.024-0.054 0.061-0.054 0.104 0 0.001 0 0.002 0 0.003v0c0 0.042 0.021 0.076 0.062 0.104s0.104 0.054 0.185 0.079c0.15 0.045 0.259 0.101 0.327 0.168s0.103 0.15 0.103 0.249c0 0.111-0.042 0.198-0.126 0.261s-0.196 0.094-0.337 0.094c-0.098 0-0.188-0.018-0.268-0.054-0.076-0.032-0.139-0.083-0.184-0.147l-0.001-0.001c-0.039-0.059-0.063-0.131-0.063-0.209 0-0.003 0-0.006 0-0.008v0.001h0.264c0 0.141 0.084 0.212 0.253 0.212 0.062 0 0.111-0.012 0.147-0.038 0.032-0.023 0.053-0.060 0.053-0.102 0-0.002 0-0.003 0-0.005v0z"></path>
</symbol>
<symbol id="icon-logo4" viewBox="0 0 32 32">
<path d="M8.011 20.412c0.073 0.083 0.112 0.186 0.11 0.293 0.001 0.007 0.001 0.015 0.001 0.022 0 0.066-0.015 0.127-0.041 0.183l0.001-0.003c-0.031 0.067-0.076 0.122-0.13 0.166l-0.001 0.001c-0.124 0.085-0.277 0.136-0.443 0.136-0.018 0-0.036-0.001-0.054-0.002h-0.867v-1.853h0.852c0.015-0.001 0.033-0.002 0.051-0.002 0.157 0 0.303 0.047 0.424 0.126l-0.003-0.002c0.055 0.043 0.099 0.096 0.127 0.155 0.029 0.061 0.042 0.126 0.038 0.191 0.005 0.102-0.030 0.203-0.099 0.284-0.066 0.074-0.158 0.125-0.259 0.145 0.115 0.019 0.22 0.075 0.294 0.159zM6.992 20.133h0.364c0.083 0.006 0.165-0.016 0.231-0.062 0.026-0.022 0.048-0.049 0.061-0.081l0.001-0.002c0.011-0.024 0.017-0.052 0.017-0.081 0-0.006-0.001-0.012-0.001-0.019v0.001c0.001-0.005 0.001-0.010 0.001-0.016 0-0.030-0.006-0.058-0.017-0.084l0.001 0.001c-0.014-0.033-0.035-0.061-0.061-0.083h-0.001c-0.059-0.040-0.131-0.063-0.209-0.063-0.010 0-0.020 0.001-0.030 0.001h-0.357v0.487zM7.623 20.843c0.029-0.022 0.051-0.051 0.066-0.084l0.001-0.002c0.012-0.026 0.019-0.057 0.019-0.089 0-0.005 0-0.010-0.001-0.015v0.001c0-0.004 0.001-0.009 0.001-0.013 0-0.033-0.007-0.065-0.021-0.093l0.001 0.001c-0.016-0.034-0.039-0.063-0.068-0.085l-0.001-0.001c-0.063-0.043-0.14-0.068-0.223-0.068-0.008 0-0.017 0-0.025 0.001h-0.381v0.51h0.387c0.087 0.005 0.173-0.018 0.244-0.065zM9.752 21.209l-0.473-0.725h-0.178v0.725h-0.408v-1.854h0.771c0.016-0.001 0.036-0.002 0.055-0.002 0.181 0 0.349 0.060 0.484 0.161l-0.002-0.002c0.108 0.101 0.173 0.233 0.184 0.374 0.001 0.012 0.001 0.025 0.001 0.039 0 0.135-0.048 0.259-0.128 0.355l0.001-0.001c-0.096 0.098-0.222 0.166-0.364 0.188l-0.003 0.001 0.505 0.741h-0.443zM9.1 20.232h0.333c0.231 0 0.348-0.093 0.348-0.281 0-0.005 0.001-0.010 0.001-0.015 0-0.035-0.007-0.069-0.020-0.099l0.001 0.002c-0.016-0.038-0.038-0.070-0.066-0.096v0c-0.063-0.048-0.143-0.076-0.23-0.076-0.011 0-0.022 0.001-0.034 0.002h-0.336l0.004 0.564zM11.98 20.835h-0.812l-0.143 0.373h-0.427l0.746-1.833h0.462l0.743 1.833h-0.427l-0.14-0.373zM11.871 20.555l-0.297-0.783-0.297 0.783h0.593zM14.768 21.209h-0.404l-0.907-1.26v1.26h-0.404v-1.854h0.404l0.907 1.268v-1.268h0.404v1.854zM17.077 20.765c-0.084 0.14-0.211 0.254-0.366 0.327-0.157 0.074-0.341 0.117-0.536 0.117-0.012 0-0.023 0-0.035-0.001h-0.718v-1.854h0.72c0.010 0 0.022-0.001 0.034-0.001 0.194 0 0.378 0.042 0.543 0.117l-0.008-0.003c0.155 0.072 0.282 0.185 0.366 0.323 0.083 0.151 0.127 0.317 0.127 0.487s-0.043 0.335-0.127 0.486zM16.614 20.721c0.11-0.115 0.178-0.271 0.179-0.442v0c0-0.162-0.063-0.319-0.179-0.442-0.125-0.099-0.286-0.159-0.46-0.159-0.016 0-0.033 0.001-0.048 0.002h-0.278v1.2h0.281c0.014 0.001 0.030 0.002 0.047 0.002 0.175 0 0.335-0.060 0.461-0.16l-0.002 0.001zM12.233 9.044s5.221 1.805 5.11 4.417v4.418s-5.218-1.805-5.109-4.418l-0.002-4.417zM21.995 16.844c0.986-0.621 2.127-1.006 3.317-1.119v-1.383c-1.372 0.485-2.536 1.363-3.317 2.503z"></path>
<path d="M21.403 17.26c0.807-1.488 2.206-2.636 3.91-3.209v-3.985s-7.436 2.571-7.279 6.291v6.289s0.331-0.115 0.853-0.331c0-0.201 0-0.404 0.024-0.608 0.154-1.726 1.050-3.326 2.492-4.449z"></path>
<path d="M20.696 19.597c0.039-0.436 0.126-0.868 0.26-1.288-0.898 0.968-1.442 2.171-1.555 3.437-0.011 0.12-0.017 0.239-0.020 0.362 0.62-0.271 1.090-0.502 1.55-0.749l-0.12 0.059c-0.132-0.599-0.171-1.212-0.116-1.821zM20.991 19.619c-0.015 0.153-0.023 0.331-0.023 0.51 0 0.403 0.042 0.797 0.121 1.176l-0.007-0.037c2.032-1.113 4.314-2.833 4.226-4.911v-0.181c-1.452 0.149-2.809 0.73-3.865 1.654-0.233 0.523-0.394 1.131-0.451 1.767l-0.002 0.022z"></path>
</symbol>
<symbol id="icon-logo5" viewBox="0 0 32 32">
<path d="M15.996 15.224c-0.114-0.147-0.183-0.335-0.183-0.538 0-0.020 0.001-0.040 0.002-0.060v0.003-0.863c0-0.264 0.060-0.465 0.18-0.604s0.326-0.206 0.618-0.205c0.275 0 0.47 0.059 0.585 0.176 0.126 0.149 0.187 0.332 0.173 0.516v0.203h-0.491v-0.205c0.002-0.067-0.003-0.134-0.015-0.201-0.008-0.049-0.034-0.090-0.070-0.119l-0.001-0.001c-0.044-0.030-0.098-0.047-0.157-0.047-0.007 0-0.015 0.001-0.022 0.001h0.001c-0.006-0.001-0.014-0.001-0.021-0.001-0.062 0-0.119 0.019-0.167 0.051l0.001-0.001c-0.040 0.033-0.070 0.078-0.081 0.13v0.002c-0.012 0.059-0.020 0.127-0.020 0.197 0 0.006 0 0.012 0 0.017v-0.001 1.048c-0.008 0.101 0.014 0.202 0.063 0.294 0.025 0.031 0.058 0.056 0.097 0.071l0.002 0.001c0.029 0.011 0.062 0.018 0.097 0.018 0.011 0 0.021-0.001 0.031-0.002h-0.001c0.006 0.001 0.013 0.001 0.021 0.001 0.057 0 0.111-0.018 0.154-0.049l-0.001 0.001c0.038-0.031 0.065-0.076 0.073-0.126v-0.001c0.011-0.070 0.017-0.14 0.015-0.21v-0.213h0.491v0.194c0.001 0.015 0.002 0.033 0.002 0.051 0 0.186-0.065 0.358-0.173 0.493l0.001-0.002c-0.113 0.128-0.305 0.192-0.588 0.192s-0.496-0.069-0.618-0.211zM18.042 15.233c-0.124-0.135-0.186-0.33-0.186-0.589v-0.908c0-0.257 0.062-0.451 0.186-0.582s0.331-0.197 0.623-0.197c0.289 0 0.495 0.066 0.619 0.197 0.124 0.132 0.187 0.326 0.187 0.582v0.908c0 0.257-0.063 0.453-0.189 0.589s-0.331 0.203-0.618 0.203-0.497-0.069-0.623-0.202zM18.893 15.015c0.044-0.084 0.065-0.176 0.059-0.268v-1.112c0.001-0.009 0.001-0.020 0.001-0.030 0-0.085-0.022-0.166-0.060-0.236l0.001 0.003c-0.026-0.032-0.060-0.057-0.099-0.072l-0.002-0.001c-0.029-0.011-0.062-0.017-0.096-0.017-0.012 0-0.024 0.001-0.035 0.002h0.001c-0.010-0.001-0.021-0.002-0.033-0.002-0.035 0-0.068 0.006-0.099 0.018l0.002-0.001c-0.040 0.015-0.075 0.040-0.101 0.072l-0.001 0.001c-0.045 0.083-0.065 0.173-0.059 0.263v1.117c-0.006 0.093 0.014 0.185 0.059 0.269 0.029 0.028 0.064 0.051 0.104 0.066 0.038 0.015 0.081 0.024 0.126 0.024s0.089-0.009 0.129-0.025l-0.002 0.001c0.040-0.016 0.075-0.038 0.104-0.066v-0.006zM20.062 12.983h0.529l0.397 1.675 0.407-1.675h0.514l0.052 2.418h-0.381l-0.041-1.681-0.392 1.681h-0.305l-0.406-1.687-0.038 1.687h-0.385l0.048-2.418zM22.555 12.983h0.824c0.474 0 0.712 0.229 0.712 0.687 0 0.438-0.25 0.657-0.749 0.657h-0.281v1.075h-0.509l0.003-2.419zM23.259 14.017c0.051 0.006 0.101 0.002 0.15-0.012 0.048-0.013 0.093-0.035 0.13-0.065 0.058-0.082 0.084-0.177 0.074-0.273 0.001-0.008 0.001-0.017 0.001-0.026 0-0.069-0.009-0.135-0.026-0.198l0.001 0.005c-0.008-0.026-0.021-0.048-0.038-0.067v0c-0.018-0.020-0.039-0.036-0.063-0.048l-0.001-0.001c-0.059-0.025-0.128-0.040-0.2-0.040-0.010 0-0.019 0-0.028 0.001h-0.196v0.723h0.198zM24.825 12.983h0.546l0.56 2.418h-0.474l-0.111-0.557h-0.487l-0.114 0.557h-0.481l0.56-2.418zM25.291 14.564l-0.19-1.015-0.19 1.015h0.38zM26.384 12.983h0.357l0.681 1.379v-1.379h0.422v2.418h-0.339l-0.685-1.44v1.44h-0.436l0.001-2.418zM28.832 14.479l-0.566-1.493h0.477l0.346 0.959 0.325-0.959h0.467l-0.56 1.493v0.922h-0.488v-0.922zM16.781 16.459v0.126h-0.415v0.982h-0.174v-0.982h-0.417v-0.126h1.006zM18.083 17.568h-0.134c-0.001 0-0.002 0-0.004 0-0.013 0-0.025-0.004-0.034-0.011v0c-0.010-0.006-0.017-0.015-0.022-0.025v-0.001l-0.12-0.263h-0.576l-0.12 0.263c-0.004 0.012-0.010 0.022-0.019 0.030v0c-0.010 0.007-0.022 0.011-0.035 0.011-0.001 0-0.002 0-0.003 0h-0.134l0.509-1.109h0.177l0.515 1.105zM17.24 17.156h0.48l-0.204-0.451c-0.013-0.029-0.026-0.063-0.036-0.099l-0.002-0.006c-0.007 0.021-0.013 0.042-0.019 0.059l-0.019 0.047-0.201 0.451zM18.959 17.459c0.032 0.002 0.064 0.002 0.096 0 0.027-0.002 0.054-0.007 0.081-0.013 0.025-0.005 0.049-0.012 0.074-0.020 0.022-0.008 0.045-0.017 0.068-0.027v-0.249h-0.203c-0.001 0-0.001 0-0.002 0-0.010 0-0.019-0.003-0.026-0.009v0c-0.003-0.002-0.006-0.006-0.008-0.009v0c-0.002-0.003-0.002-0.006-0.002-0.010 0-0.001 0-0.001 0-0.001v0-0.085h0.395v0.425c-0.062 0.038-0.133 0.069-0.209 0.089l-0.006 0.001c-0.042 0.011-0.084 0.019-0.127 0.023-0.049 0.005-0.099 0.007-0.149 0.007-0.002 0-0.004 0-0.006 0-0.089 0-0.175-0.015-0.255-0.043l0.006 0.002c-0.079-0.027-0.146-0.067-0.204-0.117l0.001 0.001c-0.054-0.048-0.099-0.107-0.13-0.172l-0.001-0.003c-0.030-0.066-0.047-0.142-0.047-0.223 0-0.002 0-0.005 0-0.007v0.001c0-0.002 0-0.005 0-0.007 0-0.081 0.017-0.159 0.047-0.229l-0.002 0.004c0.029-0.066 0.074-0.126 0.131-0.176s0.127-0.089 0.204-0.115c0.087-0.029 0.18-0.043 0.272-0.042 0.047 0 0.095 0.003 0.141 0.010 0.042 0.006 0.082 0.015 0.121 0.028 0.036 0.011 0.070 0.026 0.102 0.044 0.031 0.017 0.061 0.037 0.089 0.058l-0.049 0.069c-0.004 0.006-0.010 0.011-0.016 0.015v0c-0.007 0.004-0.015 0.006-0.024 0.006v0c-0.012 0-0.022-0.003-0.032-0.009h0.001c-0.021-0.010-0.037-0.019-0.053-0.028l0.003 0.002c-0.019-0.011-0.042-0.021-0.065-0.029l-0.003-0.001c-0.026-0.010-0.057-0.018-0.090-0.024l-0.004-0.001c-0.037-0.006-0.079-0.010-0.122-0.010-0.002 0-0.005 0-0.007 0h0.001c-0.002 0-0.004 0-0.006 0-0.068 0-0.134 0.011-0.194 0.032l0.005-0.001c-0.057 0.020-0.108 0.049-0.15 0.088-0.040 0.038-0.072 0.084-0.093 0.135l-0.001 0.003c-0.021 0.055-0.034 0.118-0.034 0.185s0.012 0.13 0.035 0.189l-0.001-0.003c0.022 0.052 0.057 0.1 0.102 0.14 0.042 0.038 0.092 0.068 0.148 0.088 0.065 0.019 0.133 0.026 0.202 0.022zM20.581 17.441h0.555v0.126h-0.725v-1.109h0.173l-0.004 0.982zM21.713 17.568h-0.173v-1.109h0.173v1.109zM22.361 16.464c0.011 0.005 0.019 0.012 0.026 0.020v0l0.743 0.836c-0.001-0.006-0.001-0.013-0.001-0.020s0-0.014 0.001-0.021v0.001-0.826h0.152v1.114h-0.088c-0.002 0-0.004 0-0.006 0-0.012 0-0.022-0.002-0.033-0.007h0.001c-0.011-0.006-0.020-0.012-0.027-0.021v0l-0.743-0.835v0.862h-0.145v-1.109h0.090c0.010 0 0.020 0.002 0.029 0.005zM24.563 16.459v0.122h-0.616v0.366h0.5v0.118h-0.5v0.378h0.616v0.122h-0.796v-1.107h0.796zM6.336 9.61l7.723 1.893v6.635l-7.723-1.893v-6.636zM5.841 9.044v7.523l8.713 2.137v-7.522l-8.713-2.137z"></path>
<path d="M10.511 22.196l-8.714-2.138v-7.522l8.714 2.137v7.523z"></path>
<path d="M5.985 9.524l7.623 1.869-3.242 2.8-7.623-1.871 3.243-2.799zM5.841 9.044l-4.044 3.491 8.714 2.138 4.043-3.492-8.713-2.137zM11.001 21.772l3.553-3.069-3.554-0.871v3.941z"></path>
</symbol>
<symbol id="icon-name" viewBox="0 0 32 32">
<path d="M16 16c4.42 0 8-3.58 8-8s-3.58-8-8-8c-4.42 0-8 3.58-8 8s3.58 8 8 8zM16 20c-5.34 0-16 2.68-16 8v2c0 1.1 0.9 2 2 2h28c1.1 0 2-0.9 2-2v-2c0-5.32-10.66-8-16-8z"></path>
</symbol>
<symbol id="icon-send" viewBox="0 0 32 32">
<path fill="#fff" style="fill: var(--color3, #fff)" d="M32 0l-32 18 10.227 3.788 15.773-14.788-11.998 16.186 0.010 0.004-0.012-0.004v8.814l5.735-6.691 7.265 2.691 5-28z"></path>
</symbol>
<symbol id="icon-smartphone" viewBox="0 0 32 32">
<path d="M16.8 28.8h-1.6c-0.442 0-0.8-0.358-0.8-0.8s0.358-0.8 0.8-0.8v0h1.6c0.442 0 0.8 0.358 0.8 0.8s-0.358 0.8-0.8 0.8v0z"></path>
<path d="M23.2 32h-14.4c-1.323 0-2.4-1.077-2.4-2.4v-27.2c0-1.323 1.077-2.4 2.4-2.4h14.4c1.323 0 2.4 1.077 2.4 2.4v27.2c0 1.323-1.077 2.4-2.4 2.4zM8.8 1.6c-0.442 0-0.8 0.358-0.8 0.8v0 27.2c0 0.442 0.358 0.8 0.8 0.8v0h14.4c0.442 0 0.8-0.358 0.8-0.8v0-27.2c0-0.442-0.358-0.8-0.8-0.8v0h-14.4z"></path>
<path d="M21.6 25.6h-11.2c-0.442 0-0.8-0.358-0.8-0.8v0-20.8c0-0.442 0.358-0.8 0.8-0.8v0h11.2c0.442 0 0.8 0.358 0.8 0.8v0 20.8c0 0.442-0.358 0.8-0.8 0.8v0zM11.2 24h9.6v-19.2h-9.6v19.2z"></path>
</symbol>
<symbol id="icon-twitter" viewBox="0 0 32 32">
<path d="M32 6.078c-1.19 0.522-2.458 0.868-3.78 1.036 1.36-0.812 2.398-2.088 2.886-3.626-1.268 0.756-2.668 1.29-4.16 1.588-1.204-1.282-2.92-2.076-4.792-2.076-3.632 0-6.556 2.948-6.556 6.562 0 0.52 0.044 1.020 0.152 1.496-5.454-0.266-10.28-2.88-13.522-6.862-0.566 0.982-0.898 2.106-0.898 3.316 0 2.272 1.17 4.286 2.914 5.452-1.054-0.020-2.088-0.326-2.964-0.808 0 0.020 0 0.046 0 0.072 0 3.188 2.274 5.836 5.256 6.446-0.534 0.146-1.116 0.216-1.72 0.216-0.42 0-0.844-0.024-1.242-0.112 0.85 2.598 3.262 4.508 6.13 4.57-2.232 1.746-5.066 2.798-8.134 2.798-0.538 0-1.054-0.024-1.57-0.090 2.906 1.874 6.35 2.944 10.064 2.944 12.072 0 18.672-10 18.672-18.668 0-0.29-0.010-0.57-0.024-0.848 1.302-0.924 2.396-2.078 3.288-3.406z"></path>
</symbol>
<symbol id="icon-twitter2" viewBox="0 0 32 32">
<path fill="#fff" style="fill: var(--color3, #fff)" d="M32 6.078c-1.19 0.522-2.458 0.868-3.78 1.036 1.36-0.812 2.398-2.088 2.886-3.626-1.268 0.756-2.668 1.29-4.16 1.588-1.204-1.282-2.92-2.076-4.792-2.076-3.632 0-6.556 2.948-6.556 6.562 0 0.52 0.044 1.020 0.152 1.496-5.454-0.266-10.28-2.88-13.522-6.862-0.566 0.982-0.898 2.106-0.898 3.316 0 2.272 1.17 4.286 2.914 5.452-1.054-0.020-2.088-0.326-2.964-0.808 0 0.020 0 0.046 0 0.072 0 3.188 2.274 5.836 5.256 6.446-0.534 0.146-1.116 0.216-1.72 0.216-0.42 0-0.844-0.024-1.242-0.112 0.85 2.598 3.262 4.508 6.13 4.57-2.232 1.746-5.066 2.798-8.134 2.798-0.538 0-1.054-0.024-1.57-0.090 2.906 1.874 6.35 2.944 10.064 2.944 12.072 0 18.672-10 18.672-18.668 0-0.29-0.010-0.57-0.024-0.848 1.302-0.924 2.396-2.078 3.288-3.406z"></path>
</symbol>
<symbol id="icon-yes" viewBox="0 0 32 32">
<path fill="#fff" style="fill: var(--color3, #fff); stroke: var(--color3, #fff)" stroke="#fff" stroke-linejoin="miter" stroke-linecap="butt" stroke-miterlimit="4" stroke-width="0.4923" d="M4.817 15.389l-0.169-0.162-2.544 2.41 8.962 8.55 18.829-17.962-2.527-2.411-16.302 15.536-6.249-5.962z"></path>
</symbol>
</defs>
</svg>
